#N canvas 1 1 1014 676 12;
#X obj 77 266 pix_video;
#X obj 292 605 pix_texture;
#X msg 239 220 device 0;
#X obj 592 122 gemwin;
#X msg 457 103 create \, 1;
#X msg 617 78 0 \, destroy;
#N canvas 1 1 1014 676 audioVis 0;
#X obj 436 717 pix_sig2pix~;
#X obj 436 753 pix_texture;
#X obj 208 473 inlet~;
#X obj 571 763 block~ 2048;
#X obj 529 586 gemhead;
#X obj 436 787 rectangle 6 4;
#X obj 298 548 phasor~;
#X floatatom 280 461 5 0 0 0 - - -;
#X obj 272 618 +~;
#X floatatom 653 606 5 0 0 0 - - -;
#X obj 478 467 phasor~;
#X floatatom 475 440 5 0 0 0 - - -;
#X obj 462 530 +~;
#X obj 574 667 +~;
#X obj 655 631 osc~;
#X obj 586 221 random 400;
#X obj 585 194 metro;
#X floatatom 599 169 5 0 0 0 - - -;
#X obj 576 124 loadbang;
#X floatatom 588 256 5 0 0 0 - - -;
#X msg 598 146 10000;
#X obj 402 216 random 400;
#X obj 401 189 metro;
#X floatatom 415 164 5 0 0 0 - - -;
#X obj 392 119 loadbang;
#X floatatom 404 251 5 0 0 0 - - -;
#X msg 414 141 10000;
#X obj 214 216 random 400;
#X obj 213 189 metro;
#X floatatom 227 164 5 0 0 0 - - -;
#X obj 204 119 loadbang;
#X floatatom 216 251 5 0 0 0 - - -;
#X msg 226 141 10000;
#X obj 265 366 line;
#X msg 264 339 \$1 2000;
#X obj 471 362 line;
#X msg 468 335 \$1 2000;
#X obj 593 362 line;
#X msg 592 335 \$1 2000;
#X obj 671 193 metro;
#X floatatom 685 168 5 0 0 0 - - -;
#X obj 662 123 loadbang;
#X msg 684 145 10000;
#X obj 672 220 random 2;
#X obj 298 192 metro;
#X floatatom 312 167 5 0 0 0 - - -;
#X obj 289 122 loadbang;
#X msg 311 144 10000;
#X obj 299 219 random 2;
#X obj 497 199 metro;
#X floatatom 511 174 5 0 0 0 - - -;
#X obj 489 123 loadbang;
#X msg 510 151 10000;
#X obj 498 226 random 2;
#X floatatom 677 251 5 0 0 0 - - -;
#X floatatom 300 251 5 0 0 0 - - -;
#X floatatom 497 261 5 0 0 0 - - -;
#X obj 591 292 *;
#X obj 273 306 *;
#X obj 466 289 *;
#X obj 297 585 *~ 0.15;
#X obj 479 499 *~ 0.15;
#X obj 658 665 *~ 0.1;
#X connect 0 0 1 0;
#X connect 1 0 5 0;
#X connect 2 0 8 0;
#X connect 2 0 12 0;
#X connect 2 0 13 0;
#X connect 2 0 0 0;
#X connect 2 0 0 1;
#X connect 2 0 0 2;
#X connect 4 0 0 0;
#X connect 6 0 60 0;
#X connect 7 0 6 0;
#X connect 9 0 14 0;
#X connect 10 0 61 0;
#X connect 11 0 10 0;
#X connect 14 0 62 0;
#X connect 15 0 19 0;
#X connect 16 0 15 0;
#X connect 17 0 16 1;
#X connect 18 0 20 0;
#X connect 18 0 16 0;
#X connect 19 0 57 0;
#X connect 20 0 17 0;
#X connect 21 0 25 0;
#X connect 22 0 21 0;
#X connect 23 0 22 1;
#X connect 24 0 26 0;
#X connect 24 0 22 0;
#X connect 25 0 59 0;
#X connect 26 0 23 0;
#X connect 27 0 31 0;
#X connect 28 0 27 0;
#X connect 29 0 28 1;
#X connect 30 0 32 0;
#X connect 30 0 28 0;
#X connect 31 0 58 0;
#X connect 32 0 29 0;
#X connect 33 0 7 0;
#X connect 34 0 33 0;
#X connect 35 0 11 0;
#X connect 36 0 35 0;
#X connect 37 0 9 0;
#X connect 38 0 37 0;
#X connect 39 0 43 0;
#X connect 40 0 39 1;
#X connect 41 0 42 0;
#X connect 41 0 39 0;
#X connect 42 0 40 0;
#X connect 43 0 54 0;
#X connect 44 0 48 0;
#X connect 45 0 44 1;
#X connect 46 0 47 0;
#X connect 46 0 44 0;
#X connect 47 0 45 0;
#X connect 48 0 55 0;
#X connect 49 0 53 0;
#X connect 50 0 49 1;
#X connect 51 0 52 0;
#X connect 51 0 49 0;
#X connect 52 0 50 0;
#X connect 53 0 56 0;
#X connect 54 0 57 1;
#X connect 55 0 58 1;
#X connect 56 0 59 1;
#X connect 57 0 38 0;
#X connect 58 0 34 0;
#X connect 59 0 36 0;
#X connect 60 0 8 1;
#X connect 61 0 12 1;
#X connect 62 0 13 1;
#X restore 800 114 pd audioVis;
#X obj 830 70 adc~;
#X obj 343 62 tgl 15 0 empty empty Make_fullscreen 17 7 0 10 -159808
-1 -1 1 1;
#X msg 493 72 fullscreen \$1;
#X text 751 43 dump audio onto screen:;
#X text 358 43 Create a window \, make fullscreen:;
#X obj 610 593 pix_texture;
#X obj 602 682 triangle 1.35;
#X obj 31 58 gemhead 52;
#X msg 495 145 cursor 0;
#X msg 654 169 cursor 1;
#X floatatom 684 657 5 0 0 0 - - -;
#X text 23 18 Main Render chain:;
#X obj 263 160 bng 30 250 50 0 empty empty Init_camera 35 7 0 10 -258113
-1 -1;
#X obj 378 159 bng 30 250 50 0 empty empty Make_window 35 7 0 10 -4034
-1 -1;
#X floatatom 721 614 5 0 0 0 x - -;
#X floatatom 633 500 5 0 0 0 X - -;
#X floatatom 692 507 5 0 0 0 Y - -;
#X floatatom 774 504 5 0 0 0 Z - -;
#X obj 571 544 translateXYZ 0 -0.46 0.01;
#X obj 295 544 rotate 0 0 0 1;
#X obj 603 625 rotate 0 0 0 1;
#X obj 830 537 spigot;
#X obj 830 563 t b;
#X obj 788 696 line;
#X obj 823 505 == 360;
#X floatatom 426 497 5 0 0 0 x - -;
#X obj 459 562 spigot;
#X obj 459 597 t b;
#X obj 404 665 line;
#X obj 435 532 == 360;
#X msg 449 673 stop;
#X msg 837 649 stop;
#X obj 49 445 pix_snap;
#X obj 212 339 loadbang;
#X msg 38 404 snap, f 5;
#X msg 226 486 0;
#X obj 44 478 trigger anything bang;
#X obj 37 373 t b a;
#X msg 795 377 0;
#X obj 654 348 t a b;
#X obj 57 306 pix_texture;
#X text 751 145 create video buffer:;
#X msg 461 327 0;
#X obj 389 315 t a b;
#X obj 369 244 gemhead 53;
#X obj 652 311 gemhead 54;
#X obj 38 170 gemframebuffer;
#X msg 434 629 0 \, 360 30000 10;
#X msg 835 616 0 \, 360 300000 10;
#X obj 13 511 pix_buffer_write $camera_buf;
#X obj 322 373 pix_buffer_read $camera_buf;
#X obj 659 407 pix_buffer_read $camera_buf;
#X obj 759 169 pix_buffer $camera_buf 1;
#X msg 224 263 dialog;
#X msg 940 473 0;
#X obj 34 341 square 4;
#X text 884 450 triangles to 0 deg:;
#N canvas -8 0 1019 722 largeTriganleFade 0;
#X obj 128 407 pix_texture;
#X obj 144 538 triangle 3;
#X obj 136 369 rotate 0 0 0 1;
#X msg 199 94 0;
#X obj 134 92 t a b;
#X obj 132 454 alpha;
#X floatatom 189 450 5 0 0 0 - - -;
#X obj 184 430 tgl 15 0 empty empty empty 17 7 0 10 -262144 -1 -1 0
1;
#X obj 134 329 color 1 1 1 0;
#X msg 503 477 1 1 1 \$1;
#X obj 139 217 translate;
#X msg 236 187 1 1 0;
#X floatatom 508 373 5 0 0 0 - - -;
#X msg 483 402 1;
#X floatatom 532 407 5 0 0 0 - - -;
#X obj 500 433 -;
#X obj 511 348 / 1;
#X obj 491 91 inlet;
#X obj 130 16 gemhead 51;
#X floatatom 548 320 5 0 0 0 - - -;
#X obj 419 181 + 0.2;
#X obj 671 303 - 1;
#X obj 615 261 moses 1;
#X obj 136 132 pix_buffer_read $camera_snap5;
#X obj 298 162 loadbang;
#X obj 306 284 *;
#X obj -59 196 r drift;
#X floatatom -55 256 5 0 0 0 - - -;
#X obj -49 206 r drift;
#X floatatom -45 266 5 0 0 0 - - -;
#X obj -39 216 r drift;
#X floatatom -35 276 5 0 0 0 - - -;
#X obj -29 226 r drift;
#X floatatom -25 286 5 0 0 0 - - -;
#X obj 327 207 r drift;
#X floatatom 325 249 5 0 0 0 - - -;
#X connect 0 0 5 0;
#X connect 2 0 0 0;
#X connect 3 0 23 1;
#X connect 4 0 23 0;
#X connect 4 1 3 0;
#X connect 5 0 1 0;
#X connect 6 0 5 1;
#X connect 7 0 5 0;
#X connect 8 0 2 0;
#X connect 9 0 8 1;
#X connect 10 0 8 0;
#X connect 11 0 10 2;
#X connect 12 0 13 0;
#X connect 12 0 14 0;
#X connect 13 0 15 0;
#X connect 14 0 15 1;
#X connect 15 0 9 0;
#X connect 16 0 12 0;
#X connect 17 0 20 0;
#X connect 18 0 4 0;
#X connect 19 0 16 0;
#X connect 19 0 25 0;
#X connect 20 0 22 0;
#X connect 21 0 19 0;
#X connect 22 0 19 0;
#X connect 22 1 21 0;
#X connect 23 0 10 0;
#X connect 24 0 11 0;
#X connect 25 0 10 1;
#X connect 26 0 27 0;
#X connect 28 0 29 0;
#X connect 30 0 31 0;
#X connect 32 0 33 0;
#X connect 34 0 35 0;
#X connect 35 0 25 1;
#X restore -290 584 pd largeTriganleFade;
#X obj 745 225 pix_buffer $camera_snap 1;
#X text 733 206 create another static buffer:;
#N canvas 553 10 444 367 clock 0;
#X obj 197 105 spigot;
#X obj 197 140 t b;
#X obj 123 273 line;
#X msg 156 199 stop;
#X obj 80 408 outlet;
#X floatatom 63 329 5 0 0 0 - - -;
#X obj 247 266 * 1000;
#X obj 334 329 loadbang;
#X obj 358 128 r speed;
#X floatatom 321 388 5 0 0 0 - - -;
#X msg 237 307 \$1;
#X obj 181 67 == 1;
#X msg 176 358 0 \, 1 2000 10;
#X connect 0 0 1 0;
#X connect 1 0 10 0;
#X connect 2 0 5 0;
#X connect 3 0 2 0;
#X connect 5 0 4 0;
#X connect 5 0 11 0;
#X connect 6 0 10 0;
#X connect 7 0 12 0;
#X connect 8 0 6 0;
#X connect 10 0 9 0;
#X connect 10 0 12 0;
#X connect 11 0 0 1;
#X connect 11 0 0 0;
#X connect 12 0 2 0;
#X restore 215 443 pd clock;
#X floatatom 224 625 5 0 0 0 - - -;
#X obj -151 755 spigot;
#X obj -87 758 == 1;
#X obj -133 700 t a b;
#X obj -152 728 pix_buffer_write $camera_snap;
#X floatatom -77 702 5 0 0 0 - - -;
#N canvas 142 33 773 710 largeTriganleFade 0;
#X obj 128 407 pix_texture;
#X obj 144 538 triangle 3;
#X obj 136 369 rotate 0 0 0 1;
#X msg 199 94 0;
#X obj 134 92 t a b;
#X obj 132 454 alpha;
#X floatatom 189 450 5 0 0 0 - - -;
#X obj 184 430 tgl 15 0 empty empty empty 17 7 0 10 -262144 -1 -1 0
1;
#X obj 134 329 color 1 1 1 0;
#X msg 398 513 1 1 1 \$1;
#X obj 139 217 translate;
#X msg 233 197 1 1 0;
#X floatatom 414 408 5 0 0 0 - - -;
#X msg 389 437 1;
#X floatatom 438 442 5 0 0 0 - - -;
#X obj 406 468 -;
#X obj 417 383 / 1;
#X obj 478 137 inlet;
#X obj 130 16 gemhead 51;
#X floatatom 383 284 5 0 0 0 - - -;
#X obj 360 201 + 0.4;
#X obj 491 260 - 1;
#X obj 443 223 moses 1;
#X obj 136 131 pix_buffer_read $camera_snap4;
#X obj 272 169 loadbang;
#X obj 295 219 r drift;
#X floatatom 293 261 5 0 0 0 - - -;
#X obj 273 299 *;
#X connect 0 0 5 0;
#X connect 2 0 0 0;
#X connect 3 0 23 1;
#X connect 4 0 23 0;
#X connect 4 1 3 0;
#X connect 5 0 1 0;
#X connect 6 0 5 1;
#X connect 7 0 5 0;
#X connect 8 0 2 0;
#X connect 9 0 8 1;
#X connect 10 0 8 0;
#X connect 11 0 10 2;
#X connect 12 0 13 0;
#X connect 12 0 14 0;
#X connect 13 0 15 0;
#X connect 14 0 15 1;
#X connect 15 0 9 0;
#X connect 16 0 12 0;
#X connect 17 0 20 0;
#X connect 18 0 4 0;
#X connect 19 0 16 0;
#X connect 19 0 27 0;
#X connect 20 0 22 0;
#X connect 21 0 19 0;
#X connect 22 0 19 0;
#X connect 22 1 21 0;
#X connect 23 0 10 0;
#X connect 24 0 11 0;
#X connect 25 0 26 0;
#X connect 26 0 27 1;
#X connect 27 0 10 1;
#X restore 659 920 pd largeTriganleFade;
#N canvas 190 202 773 710 largeTriganleFade 0;
#X obj 128 407 pix_texture;
#X obj 144 538 triangle 3;
#X obj 136 369 rotate 0 0 0 1;
#X msg 199 94 0;
#X obj 134 92 t a b;
#X obj 132 454 alpha;
#X floatatom 189 450 5 0 0 0 - - -;
#X obj 184 430 tgl 15 0 empty empty empty 17 7 0 10 -262144 -1 -1 0
1;
#X obj 134 329 color 1 1 1 0;
#X msg 313 509 1 1 1 \$1;
#X obj 139 217 translate;
#X msg 221 181 1 1 0;
#X floatatom 417 423 5 0 0 0 - - -;
#X msg 392 452 1;
#X floatatom 441 457 5 0 0 0 - - -;
#X obj 409 483 -;
#X obj 420 398 / 1;
#X obj 478 137 inlet;
#X obj 130 16 gemhead 51;
#X floatatom 409 325 5 0 0 0 - - -;
#X obj 399 195 + 0.6;
#X obj 593 324 - 1;
#X obj 442 260 moses 1;
#X obj 136 132 pix_buffer_read $camera_snap3;
#X obj 301 171 loadbang;
#X obj 328 198 r drift;
#X floatatom 326 240 5 0 0 0 - - -;
#X obj 279 291 *;
#X connect 0 0 5 0;
#X connect 2 0 0 0;
#X connect 3 0 23 1;
#X connect 4 0 23 0;
#X connect 4 1 3 0;
#X connect 5 0 1 0;
#X connect 6 0 5 1;
#X connect 7 0 5 0;
#X connect 8 0 2 0;
#X connect 9 0 8 1;
#X connect 10 0 8 0;
#X connect 11 0 10 2;
#X connect 12 0 13 0;
#X connect 12 0 14 0;
#X connect 13 0 15 0;
#X connect 14 0 15 1;
#X connect 15 0 9 0;
#X connect 16 0 12 0;
#X connect 17 0 20 0;
#X connect 18 0 4 0;
#X connect 19 0 16 0;
#X connect 19 0 27 0;
#X connect 20 0 22 0;
#X connect 21 0 19 0;
#X connect 22 0 19 0;
#X connect 22 1 21 0;
#X connect 23 0 10 0;
#X connect 24 0 11 0;
#X connect 25 0 26 0;
#X connect 26 0 27 1;
#X connect 27 0 10 1;
#X restore 340 874 pd largeTriganleFade;
#N canvas 205 29 773 710 largeTriganleFade 0;
#X obj 128 407 pix_texture;
#X obj 144 538 triangle 3;
#X obj 136 369 rotate 0 0 0 1;
#X msg 199 94 0;
#X obj 134 92 t a b;
#X obj 132 454 alpha;
#X floatatom 189 450 5 0 0 0 - - -;
#X obj 184 430 tgl 15 0 empty empty empty 17 7 0 10 -262144 -1 -1 0
1;
#X obj 134 329 color 1 1 1 0;
#X msg 302 544 1 1 1 \$1;
#X obj 139 217 translate;
#X msg 221 181 1 1 0;
#X floatatom 406 458 5 0 0 0 - - -;
#X floatatom 430 492 5 0 0 0 - - -;
#X obj 398 518 -;
#X obj 478 137 inlet;
#X obj 130 16 gemhead 51;
#X floatatom 381 245 5 0 0 0 - - -;
#X obj 415 198 + 0.8;
#X obj 409 433 / 1;
#X obj 533 289 - 1;
#X obj 477 247 moses 1;
#X msg 381 487 1;
#X obj 136 132 pix_buffer_read $camera_snap2;
#X obj 317 168 loadbang;
#X obj 287 218 r drift;
#X floatatom 285 260 5 0 0 0 - - -;
#X obj 244 303 *;
#X connect 0 0 5 0;
#X connect 2 0 0 0;
#X connect 3 0 23 1;
#X connect 4 0 23 0;
#X connect 4 1 3 0;
#X connect 5 0 1 0;
#X connect 6 0 5 1;
#X connect 7 0 5 0;
#X connect 8 0 2 0;
#X connect 9 0 8 1;
#X connect 10 0 8 0;
#X connect 11 0 10 2;
#X connect 12 0 22 0;
#X connect 12 0 13 0;
#X connect 13 0 14 1;
#X connect 14 0 9 0;
#X connect 15 0 18 0;
#X connect 16 0 4 0;
#X connect 17 0 19 0;
#X connect 17 0 27 0;
#X connect 18 0 21 0;
#X connect 19 0 12 0;
#X connect 20 0 17 0;
#X connect 21 0 17 0;
#X connect 21 1 20 0;
#X connect 22 0 14 0;
#X connect 23 0 10 0;
#X connect 24 0 11 0;
#X connect 25 0 26 0;
#X connect 26 0 27 1;
#X connect 27 0 10 1;
#X restore 40 918 pd largeTriganleFade;
#N canvas -8 -8 1020 722 largeTriganleFade 0;
#X obj 128 407 pix_texture;
#X obj 144 538 triangle 3;
#X obj 136 369 rotate 0 0 0 1;
#X msg 199 94 0;
#X obj 134 92 t a b;
#X obj 132 454 alpha;
#X floatatom 189 450 5 0 0 0 - - -;
#X obj 184 430 tgl 15 0 empty empty empty 17 7 0 10 -262144 -1 -1 0
1;
#X obj 134 329 color 1 1 1 0;
#X msg 503 477 1 1 1 \$1;
#X obj 139 217 translate;
#X msg 221 181 1 1 0;
#X floatatom 508 373 5 0 0 0 - - -;
#X msg 483 402 1;
#X floatatom 532 407 5 0 0 0 - - -;
#X obj 500 433 -;
#X obj 511 348 / 1;
#X obj 491 91 inlet;
#X obj 136 132 pix_buffer_read $camera_snap;
#X obj 130 16 gemhead 51;
#X floatatom 414 266 5 0 0 0 - - -;
#X obj 307 166 loadbang;
#X obj 354 198 r drift;
#X floatatom 352 240 5 0 0 0 - - -;
#X obj 307 306 *;
#X connect 0 0 5 0;
#X connect 2 0 0 0;
#X connect 3 0 18 1;
#X connect 4 0 18 0;
#X connect 4 1 3 0;
#X connect 5 0 1 0;
#X connect 6 0 5 1;
#X connect 7 0 5 0;
#X connect 8 0 2 0;
#X connect 9 0 8 1;
#X connect 10 0 8 0;
#X connect 11 0 10 2;
#X connect 12 0 13 0;
#X connect 12 0 14 0;
#X connect 13 0 15 0;
#X connect 14 0 15 1;
#X connect 15 0 9 0;
#X connect 16 0 12 0;
#X connect 17 0 20 0;
#X connect 18 0 10 0;
#X connect 19 0 4 0;
#X connect 20 0 16 0;
#X connect 20 0 24 0;
#X connect 21 0 11 0;
#X connect 22 0 23 0;
#X connect 23 0 24 1;
#X connect 24 0 10 1;
#X restore -46 757 pd largeTriganleFade;
#X obj 745 250 pix_buffer $camera_snap2 1;
#X obj 745 275 pix_buffer $camera_snap3 1;
#X obj 745 300 pix_buffer $camera_snap4 1;
#X obj -314 464 spigot;
#X obj -286 366 t a b;
#X floatatom -210 370 5 0 0 0 - - -;
#X obj 534 916 spigot;
#X obj 552 861 t a b;
#X floatatom 608 863 5 0 0 0 - - -;
#X obj 216 872 spigot;
#X obj 234 817 t a b;
#X floatatom 290 819 5 0 0 0 - - -;
#X obj -81 916 spigot;
#X obj -63 861 t a b;
#X floatatom -7 863 5 0 0 0 - - -;
#X obj -82 890 pix_buffer_write $camera_snap2;
#X obj -17 919 == 0.2;
#X obj 280 875 == 0.4;
#X obj 595 916 == 0.6;
#X obj 746 324 pix_buffer $camera_snap5 1;
#X obj 135 645 pix_buf;
#X obj 135 594 pix_buf;
#X obj 137 566 pix_buf;
#X obj 135 619 pix_buf;
#X obj 215 846 pix_buffer_write $camera_snap3;
#X obj 533 891 pix_buffer_write $camera_snap4;
#X obj -315 438 pix_buffer_write $camera_snap5;
#X obj -250 467 == 0.8;
#X obj 394 715 triangle 3;
#X floatatom 537 695 5 0 0 0 - - -;
#X obj 72 215 translateXYZ 0 0 -4;
#X msg 87 124 dimen 640 480;
#X msg 194 394 640 480;
#X obj 134 674 pix_buf;
#X obj 122 82 loadbang;
#X msg 612 28 view 0 0 4;
#X obj 304 446 color 1 1 1 0;
#X floatatom 192 13 5 0 0 1 Set_drift - -;
#X obj 259 129 s drift;
#X obj 691 461 pix_delay;
#X floatatom 446 205 5 0 0 0 - - -;
#X floatatom 218 40 5 0 0 1 Set_Speed - -;
#X obj 259 96 s speed;
#X obj 883 400 loadbang;
#X text 394 208 DELAY:;
#X obj 262 -105 loadbang;
#X msg 227 -51 -2;
#X obj 439 -162 loadbang;
#X msg 440 -25 25;
#X connect 0 0 47 0;
#X connect 1 0 106 0;
#X connect 2 0 0 0;
#X connect 4 0 3 0;
#X connect 5 0 3 0;
#X connect 7 0 6 0;
#X connect 7 1 6 0;
#X connect 8 0 9 0;
#X connect 9 0 3 0;
#X connect 12 0 27 0;
#X connect 14 0 53 0;
#X connect 15 0 3 0;
#X connect 16 0 3 0;
#X connect 17 0 13 1;
#X connect 19 0 2 0;
#X connect 20 0 4 0;
#X connect 20 0 15 0;
#X connect 21 0 27 1;
#X connect 21 0 31 0;
#X connect 22 0 25 1;
#X connect 23 0 25 2;
#X connect 24 0 25 3;
#X connect 25 0 12 0;
#X connect 26 0 1 0;
#X connect 27 0 13 0;
#X connect 28 0 29 0;
#X connect 29 0 55 0;
#X connect 30 0 21 0;
#X connect 31 0 28 1;
#X connect 31 0 28 0;
#X connect 32 0 36 0;
#X connect 32 0 26 1;
#X connect 33 0 34 0;
#X connect 34 0 54 0;
#X connect 35 0 32 0;
#X connect 36 0 33 1;
#X connect 36 0 33 0;
#X connect 37 0 35 0;
#X connect 38 0 30 0;
#X connect 39 0 43 0;
#X connect 40 0 110 0;
#X connect 41 0 39 0;
#X connect 42 0 56 1;
#X connect 43 0 56 0;
#X connect 43 1 42 0;
#X connect 44 0 41 0;
#X connect 44 1 39 0;
#X connect 45 0 58 1;
#X connect 46 0 58 0;
#X connect 46 1 45 0;
#X connect 47 0 62 0;
#X connect 49 0 57 1;
#X connect 50 0 57 0;
#X connect 50 1 49 0;
#X connect 51 0 50 0;
#X connect 52 0 46 0;
#X connect 53 0 108 0;
#X connect 54 0 35 0;
#X connect 55 0 30 0;
#X connect 56 0 98 0;
#X connect 56 0 99 0;
#X connect 56 0 100 0;
#X connect 56 0 101 0;
#X connect 56 0 111 0;
#X connect 57 0 114 0;
#X connect 58 0 117 0;
#X connect 60 0 0 0;
#X connect 61 0 32 0;
#X connect 61 0 21 0;
#X connect 62 0 44 0;
#X connect 67 0 68 0;
#X connect 68 0 64 0;
#X connect 68 0 70 0;
#X connect 68 0 74 0;
#X connect 68 0 75 0;
#X connect 68 0 77 0;
#X connect 68 0 76 0;
#X connect 68 0 95 0;
#X connect 68 0 94 0;
#X connect 68 0 96 0;
#X connect 68 0 105 0;
#X connect 69 0 71 0;
#X connect 70 0 69 1;
#X connect 70 0 69 0;
#X connect 71 0 72 0;
#X connect 71 1 73 0;
#X connect 73 0 72 1;
#X connect 81 0 82 0;
#X connect 82 0 104 0;
#X connect 82 1 83 0;
#X connect 83 0 104 1;
#X connect 84 0 85 0;
#X connect 85 0 103 0;
#X connect 85 1 86 0;
#X connect 86 0 103 1;
#X connect 87 0 88 0;
#X connect 88 0 102 0;
#X connect 88 1 89 0;
#X connect 89 0 102 1;
#X connect 90 0 91 0;
#X connect 91 0 93 0;
#X connect 91 1 92 0;
#X connect 92 0 93 1;
#X connect 94 0 90 1;
#X connect 94 0 90 0;
#X connect 95 0 87 1;
#X connect 95 0 87 0;
#X connect 96 0 84 1;
#X connect 96 0 84 0;
#X connect 98 0 72 0;
#X connect 99 0 104 0;
#X connect 100 0 102 0;
#X connect 101 0 93 0;
#X connect 105 0 81 1;
#X connect 105 0 81 0;
#X connect 107 0 106 1;
#X connect 108 0 0 0;
#X connect 109 0 53 0;
#X connect 110 0 39 2;
#X connect 111 0 103 0;
#X connect 112 0 109 0;
#X connect 113 0 3 0;
#X connect 114 0 26 0;
#X connect 115 0 116 0;
#X connect 117 0 25 0;
#X connect 118 0 117 1;
#X connect 119 0 120 0;
#X connect 121 0 118 0;
#X connect 123 0 124 0;
#X connect 124 0 115 0;
#X connect 125 0 126 0;
#X connect 125 0 8 0;
#X connect 126 0 118 0;
